<svg width="2000" height="1065" viewBox="0 0 2000 1065" fill="none" xmlns="http://www.w3.org/2000/svg">
<g clip-path="url(#clip0_1_2)">
<path fill-rule="evenodd" clip-rule="evenodd" d="M513.165 140.602C511.73 140.611 510.295 140.62 508.859 140.629C501.106 140.654 493.622 140.748 486.037 142.494L484 143C440.545 152.38 399.583 171.177 368 203C365.806 205.254 363.608 207.468 361.24 209.54C357.254 212.965 353.406 216.477 349.681 220.185L347.821 222.052C345.67 224.198 343.52 226.344 341.374 228.494C339.806 230.064 338.237 231.633 336.667 233.202C332.38 237.483 328.094 241.767 323.811 246.053C319.256 250.611 314.699 255.168 310.142 259.724C301.521 268.342 292.902 276.962 284.285 285.584C276.879 292.995 269.472 300.403 262.061 307.809C253.875 315.991 245.689 324.173 237.507 332.358L235.562 334.303C231.63 338.236 227.698 342.17 223.765 346.101C219.393 350.469 215.023 354.838 210.655 359.21C209.042 360.826 207.428 362.441 205.814 364.056C203.573 366.294 201.332 368.532 199.095 370.773L197.052 372.821C193.307 376.553 189.678 380.326 186.215 384.324C185.16 385.564 184.091 386.791 183 388C182.64 388.288 182.28 388.572 181.922 388.856C180.011 390.367 178.14 391.845 176.486 393.668C172.916 397.849 169.246 401.901 165.458 405.884C140.641 431.963 123.014 462.777 113.241 497.455L112.312 500.812C107.227 518.94 105.607 536.135 105.687 554.945C105.719 558.875 105.75 562.805 105.76 566.735C105.764 569.344 105.77 571.953 105.78 574.562L105.797 578.297L105.799 578.773C105.818 584.205 105.837 589.569 106.454 594.974L107 598C113.575 635.517 126.715 671.031 150.734 701.016C151.825 702.342 152.914 703.67 154 705C160.898 713.893 168.531 721.747 176.539 729.635C178.63 731.692 180.718 733.753 182.805 735.814C184.154 737.151 185.502 738.488 186.852 739.824C190.64 743.542 194.305 747.298 197.783 751.312C199.667 753.528 201.375 755.313 203.625 757.188C204.802 758.05 205.42 758.503 206.001 759.001C206.644 759.552 207.241 760.159 208.5 761.438L211 764C212.687 765.646 214.355 767.312 216 769C217.305 770.689 218.634 772.36 220 774L223 775C223 776.065 223 776.563 223.175 776.989C223.328 777.363 223.616 777.682 224.157 778.28C225.639 779.663 227.08 781.087 228.509 782.524C230.591 784.621 232.675 786.715 234.76 788.809C235.903 789.956 237.045 791.103 238.188 792.25C238.895 792.963 239.602 793.678 240.309 794.392C245.295 799.432 250.277 804.468 255.645 809.109C256.777 810.056 257.898 811.018 259 812C259.428 812.513 259.85 813.03 260.271 813.545C261.981 815.635 263.677 817.709 265.693 819.526C270.079 823.237 274.225 827.114 278.282 831.18L280.556 833.474L285.611 838.549C288.335 841.29 291.059 844.032 293.787 846.77C302.114 855.121 310.436 863.477 318.752 871.84C323.145 876.258 327.54 880.674 331.94 885.085C333.799 886.948 335.658 888.812 337.516 890.676L337.72 890.882C340.317 893.498 342.913 896.114 345.516 898.724L347.962 901.173L350.26 903.498L352.384 905.618C354.29 907.533 355.849 908.918 358.226 910.211L360 911V913C361.016 913.446 361.542 913.677 362.002 914.001C362.495 914.348 362.912 914.803 363.777 915.743C374.352 926.868 384.897 937.053 397.735 945.513L400 947C410.407 954.014 420.757 960.343 432.383 965.137C434.712 966.074 437.036 967.015 439.347 967.999C449.781 972.446 460.335 975.833 471.366 978.474L473.312 978.938C489.512 982.867 505.313 983.146 521.883 983.137C525.077 983.13 528.271 983.125 531.466 983.13C532.099 983.132 532.733 983.133 533.366 983.135C546.146 983.166 558.8 983.198 571.401 980.695L573.812 980.188C576.424 979.642 579.033 979.088 581.639 978.518L584 978C609.608 972.661 634.464 960.387 656.28 946.131L658 945C673.471 934.858 687.548 922.66 700.5 909.5L700.57 909.428C705.022 904.905 709.45 900.407 714.25 896.25C716.543 894.281 718.772 892.297 720.906 890.156C724.89 886.077 728.857 882.03 733.188 878.312C735.16 876.628 737.068 874.933 738.918 873.113C740.112 871.9 741.399 870.493 742.764 869C748.62 862.596 755.91 854.626 763.445 853.699C769.111 853.542 772.619 854.053 777.078 857.699L777.847 858.403C780.556 860.885 783.265 863.366 786.047 865.766C789.683 868.878 793.135 872.095 796.5 875.5C798.576 877.604 800.638 879.681 802.855 881.637C806.797 884.973 810.506 888.463 814.144 892.125C814.687 892.674 815.229 893.223 815.771 893.773C819.461 897.513 823.145 901.249 827.125 904.688C829.38 906.593 831.566 908.528 833.727 910.543C839.556 916.015 845.482 921.108 851.957 925.824L855 928C876.631 943.852 901.439 956.527 927.153 964.167L930 965C933.294 965.974 936.59 966.937 939.895 967.874L943.25 968.812C961.36 973.987 979.171 974.32 997.869 974.268C1001.35 974.256 1004.83 974.249 1008.31 974.261C1011.07 974.27 1013.83 974.274 1016.59 974.271L1020.57 974.266C1052.53 974.371 1085.22 965.278 1113.76 951.125L1116 950C1125.55 945.251 1134.79 940.156 1143.67 934.238C1144.78 933.491 1145.89 932.745 1147 932C1155.44 926.52 1162.81 920.702 1170.07 913.781C1171.77 912.158 1173.48 910.582 1175.24 909.031C1179 905.834 1182.53 902.508 1186 899C1188.28 896.696 1190.54 894.413 1192.96 892.262C1196.73 889.061 1200.3 885.744 1203.78 882.235C1204.13 881.881 1204.48 881.528 1204.83 881.174C1208.53 877.433 1212.21 873.702 1216.19 870.25C1218.31 868.455 1220.38 866.644 1222.43 864.758C1223.01 864.217 1223.59 863.67 1224.17 863.125C1229.31 858.298 1234.42 853.494 1241.62 852.5C1249.28 855.817 1253.17 857.502 1256.56 859.885C1260.07 862.346 1263.06 865.55 1269.12 872.062L1271.11 874.1L1273.07 876.098C1274.91 877.995 1276.78 879.812 1278.77 881.551C1282.78 885.006 1286.63 888.53 1290.35 892.289C1291.61 893.575 1292.88 894.858 1294.15 896.139C1296.21 898.215 1298.26 900.294 1300.31 902.375C1300.99 903.063 1301.66 903.751 1302.34 904.439C1308.73 910.95 1315.1 917.44 1322.19 923.207C1324.7 925.162 1327.11 927.105 1329.46 929.253C1336.37 935.82 1343.97 941.211 1351.84 946.542L1354 948C1366 956.292 1378.65 962.273 1392.13 967.828L1395 969C1404.85 973.083 1414.89 975.853 1425.25 978.336L1427.25 978.812L1431.06 979.729L1434.77 980.582C1444.56 982.847 1454.61 983.109 1464.63 983.139L1467.98 983.133C1470.41 983.135 1472.83 983.136 1475.25 983.137C1479.01 983.13 1482.78 983.125 1486.54 983.13C1489.02 983.135 1491.5 983.136 1493.98 983.136L1497.55 983.133C1507.91 983.152 1517.51 982.493 1527.61 980.135L1530.75 979.375C1547.4 975.342 1563.55 970.209 1579.07 962.914L1581 962C1599.93 953.142 1616.82 942.088 1632.04 927.681C1635.25 924.634 1638.49 921.673 1641.87 918.812C1642.95 917.925 1643.41 917.548 1643.84 917.146C1644.16 916.849 1644.47 916.539 1645 916V914C1645.89 914 1646.38 914 1646.82 913.85C1647.38 913.662 1647.86 913.237 1648.94 912.275L1651.29 909.871L1653.89 907.232C1655.69 905.395 1657.49 903.559 1659.29 901.725L1661.91 899.059C1664.07 896.858 1666.21 894.68 1668.54 892.677C1670.48 891.036 1671.8 889.921 1673.09 888.772C1675.81 886.337 1678.4 883.748 1686.46 875.673C1687.76 874.373 1689.05 873.075 1690.35 871.778C1693.91 868.231 1697.46 864.683 1701 861.133C1703.2 858.932 1705.4 856.732 1707.6 854.533C1709.18 852.958 1710.75 851.384 1712.33 849.809C1718.66 843.481 1724.99 837.152 1731.31 830.82C1738.67 823.461 1746.02 816.105 1753.38 808.752C1759.75 802.381 1766.13 796.008 1772.5 789.634L1774.2 787.938C1777.43 784.706 1780.66 781.475 1783.89 778.245C1787.51 774.629 1791.13 771.012 1794.74 767.392C1796.08 766.052 1797.42 764.713 1798.76 763.373C1799.55 762.578 1800.35 761.785 1801.15 760.991C1806.28 755.89 1811.4 750.791 1816.16 745.338C1817.96 743.212 1819.75 741.224 1821.7 739.219C1823.02 737.922 1824.35 736.626 1825.67 735.325L1827.13 733.881C1840.1 721.138 1852.5 708.258 1862.81 693.23L1865 690C1866.75 687.487 1868.43 684.968 1870.04 682.359L1872 679C1878.9 667.21 1884.65 655.189 1889.13 642.295L1889.81 640.312C1891.15 636.492 1892.43 632.668 1893.59 628.791C1894.05 627.193 1894.53 625.596 1895 624C1901.62 603.207 1902.96 584.444 1902.38 562.833C1902.29 559.51 1902.22 556.188 1902.19 552.863C1902.17 551.153 1902.16 549.439 1902.15 547.722C1902.09 533.824 1902.02 519.767 1897.34 506.555C1896.45 504.2 1895.63 501.819 1894.88 499.417C1884.82 466.499 1869.88 436.035 1846.85 410.176C1845.9 409.121 1844.95 408.062 1844 407C1838.73 400.751 1833.08 394.965 1827.29 389.202C1825.38 387.302 1823.46 385.402 1821.56 383.499C1816.75 378.705 1811.94 373.914 1807.12 369.125C1802.98 365.004 1798.84 360.882 1794.7 356.756C1792.75 354.81 1790.8 352.866 1788.85 350.925C1782.31 344.428 1775.86 337.908 1769.76 330.995C1767.59 328.537 1765.42 326.212 1763 324C1762.62 323.817 1762.27 323.657 1761.95 323.507C1760.2 322.702 1759.1 322.2 1758.06 320.188C1757.61 319.254 1757.31 318.63 1756.93 318.053C1756.18 316.894 1755.14 315.923 1752 313C1747.83 309.617 1743.96 306.076 1740.16 302.277L1737.95 300.051C1736.33 298.422 1734.7 296.793 1733.08 295.164C1730.43 292.501 1727.78 289.838 1725.12 287.179C1718.45 280.497 1711.79 273.812 1705.12 267.125C1699.41 261.391 1693.7 255.657 1687.98 249.928C1685.28 247.222 1682.58 244.515 1679.88 241.804C1670.16 232.042 1660.37 222.396 1650.27 213.03C1648.28 211.191 1646.31 209.344 1644.34 207.485L1643.57 206.754C1636.85 200.356 1630.14 193.969 1622.84 188.219C1621.35 187.057 1619.87 185.891 1618.41 184.688C1602.75 171.694 1583.36 161.36 1564.11 154.72L1562 154C1559.1 152.982 1556.2 151.975 1553.28 150.992L1550.12 149.938C1546.49 148.692 1542.85 147.549 1539.14 146.556L1537 146C1519.19 141.346 1501.97 140.307 1483.69 140.568C1480.87 140.609 1478.05 140.637 1475.22 140.65C1420.65 140.877 1367.54 159.78 1326.82 196.988C1315.78 207.691 1307.92 217.853 1307.47 233.657L1307.44 236.75L1307.39 239.727C1307.55 250.811 1312.3 257.371 1320 265C1326.98 271.519 1332.39 273.944 1341.98 273.85L1345.81 273.688C1354.53 273.613 1360.5 273.336 1368.06 268.748L1369.93 267.504L1372.06 266.079L1374.31 264.562C1379.87 260.841 1385.37 257.054 1390.82 253.175C1413.47 237.044 1437.96 226.696 1465.65 223.274L1468 223C1500.61 219.114 1534.78 229.429 1561.92 247.549L1564 249C1574.92 256.587 1584.05 265.715 1593.35 275.178C1595.82 277.697 1598.3 280.21 1600.78 282.721C1602.38 284.338 1603.98 285.956 1605.58 287.574C1609.73 291.806 1613.88 295.956 1618.37 299.835C1620.74 301.84 1622.54 303.648 1624.56 306.062L1627 309C1632.99 314.047 1638.57 319.427 1644.1 324.97C1645.25 326.117 1646.39 327.262 1647.54 328.407C1650.67 331.535 1653.8 334.666 1656.93 337.799C1660.26 341.131 1663.6 344.462 1666.93 347.792C1672.52 353.378 1678.1 358.965 1683.69 364.555C1690.18 371.049 1696.67 377.541 1703.16 384.029C1708.79 389.651 1714.41 395.275 1720.04 400.9C1723.39 404.251 1726.74 407.603 1730.09 410.953C1733.28 414.143 1736.47 417.335 1739.66 420.529C1740.85 421.713 1742.03 422.896 1743.21 424.08C1743.72 424.585 1744.22 425.09 1744.73 425.594C1749.61 430.457 1754.48 435.314 1759.01 440.513C1761.69 443.68 1764.54 446.616 1767.49 449.528C1773.15 455.079 1778.74 460.664 1783.96 466.637L1786 469C1793.18 476.921 1798.24 485.192 1802.9 494.74L1804 497C1812.07 513.4 1817.6 530.266 1818.88 548.597C1820.8 586.953 1811.92 625.689 1785.74 655.008C1784.33 656.537 1782.94 658.071 1781.59 659.652C1776.83 665.226 1771.72 670.416 1766.52 675.582C1765.49 676.61 1764.46 677.639 1763.43 678.669C1760.7 681.394 1757.97 684.116 1755.24 686.837C1752.43 689.632 1749.63 692.43 1746.82 695.229C1742.17 699.872 1737.52 704.514 1732.86 709.153L1728 714C1724.56 717.419 1721.24 720.894 1718 724.5C1715.52 727.264 1713.02 729.981 1710.41 732.625L1710.14 732.892C1707.91 735.089 1705.7 737.299 1648.28 794.724L1645.54 797.459C1643.39 799.611 1641.23 801.763 1639.09 803.925C1637.82 805.213 1636.54 806.5 1635.26 807.785L1633.19 809.875C1632.83 810.233 1632.48 810.591 1632.13 810.949C1629.21 813.905 1626.3 816.86 1623.18 819.595C1617.56 824.372 1612.39 829.527 1607.2 834.76C1600.26 841.777 1593.28 848.762 1586.27 855.705C1554.71 886.615 1517.81 901.533 1473.71 901.09C1442.29 900.584 1405.43 887.014 1383.06 864.125C1381.34 862.235 1380.07 861.036 1377.81 859.805L1376 859C1376 858.094 1376 857.598 1375.84 857.159C1375.65 856.628 1375.24 856.179 1374.31 855.188L1372 853C1369.27 850.193 1366.49 847.529 1363.5 845C1361.53 843.361 1359.68 841.68 1357.85 839.875C1356.24 838.252 1354.63 836.635 1353.01 835.027C1344.08 826.174 1335.15 817.331 1326.72 807.992C1325.33 806.447 1323.92 804.921 1322.48 803.419C1321.9 802.813 1321.31 802.215 1320.72 801.62C1315.9 796.742 1311.27 792.045 1310 785C1311.94 778.357 1312.93 774.976 1314.69 772.06C1316.51 769.037 1319.16 766.514 1324.56 761.375C1326.62 759.405 1328.63 757.427 1330.5 755.28C1334.49 750.628 1338.67 746.248 1343.03 741.934C1343.7 741.276 1344.37 740.619 1345.03 739.962C1349.71 735.372 1354.39 730.788 1358.69 725.836C1361.84 722.166 1365.12 718.638 1368.44 715.125C1385.2 697.514 1397.44 677.127 1406.85 654.787L1408 652C1428.5 602.702 1433.34 540.274 1414.89 489.401L1414 487L1413.79 486.435C1409.05 473.456 1404.35 460.596 1397.24 448.699C1396.49 447.467 1395.75 446.234 1395 445C1388.45 433.97 1382.02 423.215 1373.42 413.652C1371.95 412.041 1370.5 410.412 1369.08 408.754C1363.21 401.851 1356.73 395.576 1350.12 389.386L1348.44 387.812C1329.22 369.734 1303.26 354.362 1277.44 348.522L1275 348C1265.3 345.823 1256.05 344.594 1246.09 344.639C1243.91 344.664 1241.73 344.687 1239.55 344.684L1237.36 344.678C1195.73 344.757 1156.6 366.212 1127.65 395.074L1124.88 397.875C1090.83 431.632 1065.24 478.716 1059.49 526.793C1053.07 589.911 1064.85 654.372 1105.54 704.908L1107 706.688C1113.39 714.62 1120.03 722.139 1127.27 729.308C1134.22 736.164 1141.13 743.055 1147.84 750.149L1149.87 752.312C1153.62 756.294 1157.28 760.317 1160.82 764.48C1161.77 765.622 1162.19 766.125 1162.64 766.605C1162.99 766.984 1163.35 767.348 1164 768H1166C1167.02 770.194 1168.08 772.117 1169.51 774.078C1172.28 777.805 1174.41 780.676 1174.44 785.438C1169.26 797.615 1169.26 797.615 1159.21 807.04L1156.7 809.531C1154.9 811.33 1153.1 813.128 1151.3 814.926C1148.49 817.714 1145.69 820.502 1142.89 823.298C1141.05 825.138 1139.21 826.977 1137.36 828.814L1134.7 831.469C1105.19 860.941 1075.32 880.513 1034.27 889.805C992.901 898.252 950.072 889.187 914.748 866.442C913.499 865.627 912.25 864.813 911 864C896.126 854.519 883.591 843.44 871.297 830.859C869.383 828.9 867.462 826.951 865.53 825.01C863.277 822.749 860.727 820.396 858.073 817.946C848.087 808.732 836.63 798.16 834 786C835.732 779.575 836.612 776.312 838.256 773.496C839.952 770.59 842.462 768.16 847.562 763.223C848.288 762.52 849.015 761.819 849.742 761.118C854.959 756.084 860.177 751.051 864.934 745.574C866.544 743.668 868.159 741.839 869.909 740.058C894.647 715.782 916.271 688.085 930.103 656.093L931 654C934.812 645.277 938 636.525 940.425 627.311L941.188 624.312C941.916 621.465 942.596 618.619 943.222 615.747L944 612C947.172 597.279 948.587 583.05 948.596 567.986C948.576 564.34 948.562 560.697 948.597 557.051C948.77 540.46 947.335 524.961 943.646 508.772L943 506C936.826 479.054 925.559 452.034 909.074 429.699L907 427C904.764 423.949 902.523 420.906 900.234 417.895L898 415C889.07 403.408 879.008 393.058 867.531 383.973L865 382C847.188 367.512 827.205 356.225 805.128 349.617L803 349C782.318 342.85 756.756 342.327 735.652 347.031L732 348C706.435 354.283 681.643 367.468 662.125 385.188L661.648 385.636C659.353 387.793 657.065 389.943 654.684 392.008C651.827 394.438 649.218 396.738 646.812 399.625L645 402C621.702 425.177 603.882 453.257 593.774 484.57L593 487C592.079 489.868 591.171 492.739 590.287 495.619L589.375 498.625C583.062 518.794 581.399 538.662 581.643 559.704C581.673 562.263 581.693 564.823 581.705 567.382C581.713 569.927 581.723 572.473 581.737 575.018L581.762 578.656C581.766 579.336 581.769 580.017 581.771 580.697C581.789 585.488 581.807 590.275 582.478 595.028L583 598C586.716 622.727 595.151 647.663 606.813 669.774L608 672C615.106 685.59 623.445 697.893 633.152 709.781L635 712C639.082 716.934 643.454 721.497 648 726L648.353 726.349C650.904 728.869 653.445 731.379 655.836 734.055C658.969 737.76 662.22 741.264 665.662 744.681C668.095 747.088 670.778 749.562 673.544 752.113C682.902 760.741 693.213 770.249 698 781C698.477 787.495 696.383 791.501 692.25 796.375C691.705 796.98 691.161 797.586 690.617 798.193C690.078 798.795 689.539 799.397 689 800C683.479 806.554 677.524 812.616 671.467 818.67C669.512 820.618 667.558 822.567 665.609 824.521C664.925 825.207 664.243 825.894 663.56 826.581C658.65 831.522 653.739 836.463 648.469 841.023C645.658 843.412 643.021 845.897 640.437 848.527C639.054 849.943 637.667 851.387 636.27 852.841C628.333 861.101 620.07 869.7 610.41 875.586L608 877C598.794 882.834 589.588 888.294 579.354 892.131L577 893C548.12 904.184 509.25 906.586 480.5 894.102C478.878 893.387 477.244 892.699 475.598 892.042C467.675 888.951 460.217 885.241 452.941 880.816L450 879C440.816 873.588 432.999 868.049 425.5 860.5C423.766 858.732 422.022 857.019 420.165 855.38C416.165 851.956 412.317 848.435 408.586 844.72L406.683 842.81C404.484 840.616 402.286 838.421 400.091 836.224C398.488 834.618 396.883 833.013 395.278 831.409C390.894 827.031 386.511 822.65 382.131 818.267C377.471 813.604 372.809 808.942 368.147 804.281C359.324 795.462 350.504 786.64 341.686 777.817C334.111 770.237 326.534 762.659 318.954 755.083C310.104 746.239 301.255 737.393 292.41 728.545C288.199 724.332 283.988 720.12 279.775 715.909C275.305 711.442 270.835 706.974 266.368 702.503C264.715 700.848 263.062 699.193 261.408 697.538C260.464 696.595 259.519 695.654 258.574 694.713C252.143 688.309 245.72 681.913 239.724 675.091C237.787 672.807 236.377 671.212 233.767 669.744L232 669C232 668.233 232 667.761 231.863 667.332C231.642 666.642 231.066 666.066 229.562 664.562C212.306 647.709 200.911 625.877 193.836 602.996L193 600C188.869 585.321 187.756 571.605 188.198 556.389L188.312 553.062C189.344 521.815 202.954 490.057 223.023 466.23L225 464C228.873 459.504 232.788 455.098 236.975 450.891L238.748 449.125C240.789 447.079 242.83 445.034 244.875 442.993C246.368 441.502 247.859 440.01 249.35 438.518C253.422 434.441 257.495 430.365 261.571 426.292C265.906 421.961 270.239 417.628 274.571 413.294C281.834 406.029 289.097 398.766 296.363 391.505C304.812 383.061 313.26 374.615 321.703 366.166C329.016 358.849 336.33 351.533 343.646 344.219L345.438 342.427C349.198 338.668 352.958 334.91 356.716 331.149C360.87 326.993 365.024 322.837 369.181 318.684C370.002 317.865 370.823 317.045 371.643 316.225C372.359 315.51 373.075 314.795 373.791 314.08C375.918 311.949 378.045 309.819 380.176 307.692L382.125 305.748C385.781 302.078 389.483 298.562 393.43 295.203C395.491 293.49 395.492 293.489 396.999 292.001L397 290C397.851 290 398.34 290 398.781 289.856C399.378 289.66 399.888 289.202 401.088 288.123L403.656 285.504C405.107 284.037 406.557 282.569 408.001 281.095C414.745 274.2 421.514 267.393 428.735 260.99L431 259C437.327 253.363 443.754 248.71 451.062 244.438C483.118 226.182 522.533 215.684 559.214 225.712L561.688 226.438C584.729 233.164 604.169 243.2 623.188 257.625C625.566 259.475 627.948 261.311 630.375 263.097L633 265C641.468 271.421 647.877 274.056 658.322 273.85C660.463 273.767 662.598 273.687 664.74 273.666C665.672 273.661 666.621 273.681 667.577 273.701C671.998 273.793 676.574 273.889 680.319 271.554L682 270C685.649 267.125 688.989 263.965 692.348 260.759C698.885 253.739 700.472 247.676 700.254 238.293L700.188 236.188C700.031 225.733 699.72 216.669 692.047 208.82C690.465 207.357 688.914 205.909 687.428 204.347C681.386 197.815 674.955 191.738 667.961 186.227L665 184C645.436 169.284 623.782 158.163 600.415 150.99L596.938 149.938C593.625 148.933 590.312 147.969 586.971 147.064C585.646 146.714 584.323 146.359 583 146C565.699 140.893 549.145 140.301 531.264 140.513C528.233 140.55 525.203 140.57 522.171 140.574C519.169 140.577 516.167 140.585 513.165 140.602ZM816 448C800.373 434.942 785.932 425.623 765.191 426.86C763.756 426.952 762.32 427.035 760.883 427.108C751.786 427.567 745.599 429.017 737.5 433.164L734 435C722.322 440.975 713.647 448.584 704.711 458.163L703 460C687.994 475.602 676.891 493.978 669.242 514.223C657.21 550.812 660.261 590.413 676.137 625.116L677 627C680.986 635.885 685.909 643.596 691.745 651.346L693 653C693.412 653.545 693.822 654.092 694.233 654.639C696.386 657.51 698.543 660.387 701 663H703C703 665 703 665 704.424 666.678L706.45 668.708L708.74 671.017L711.258 673.523C713.016 675.286 714.775 677.048 716.535 678.809C719.312 681.573 722.089 684.338 724.854 687.115C725.392 687.655 725.929 688.195 726.467 688.736C733.855 696.164 741.251 703.6 749.091 710.553L750.867 712.102C754.973 715.736 758.859 718.129 764 720C771.371 719.811 777.308 714.919 782.5 710.188C785.835 707.038 789.182 703.959 792.688 701C793.793 700.078 794.271 699.68 794.727 699.256C795.075 698.933 795.41 698.595 796 698V696H798C799.904 694.413 801.001 692.998 802.188 690.812L803 689H805V687H807C807.463 685.95 807.686 685.444 807.999 685.002C808.29 684.59 808.658 684.234 809.37 683.546C827.671 665.724 847.419 645.621 856.239 621.142L857 619C867.581 590.046 873.686 557.641 864.689 527.253L864 525C859.541 509.837 854.424 494.41 845.25 481.375L845.138 481.226C843.603 479.179 842.114 477.195 840.816 474.984C839.443 472.441 838.17 470.182 836.188 468.062C834.068 466.064 832.255 463.972 830.375 461.75C829.387 460.567 828.944 460.038 828.479 459.53C828.102 459.118 827.71 458.72 827 458H825V456H823V454C821.421 452.559 819.829 451.13 818.18 449.77L816 448ZM1290.13 446.438L1287 444C1265.2 426.765 1236.13 419.612 1210.82 434.312L1208.75 435.562C1207.66 436.215 1206.49 436.887 1205.29 437.584C1198.15 441.71 1189.54 446.68 1185.65 453.289L1185 455H1183L1181.57 456.777C1180.78 457.933 1180.41 458.48 1180 459C1179.63 459.466 1179.24 459.91 1178.49 460.754C1175.83 463.728 1173.22 466.738 1170.65 469.789L1168.25 472.688C1158.48 484.492 1150.45 500.332 1145.66 514.882L1145 517C1139.33 534.893 1139.47 552.703 1139.69 571.279L1139.73 573.875C1140.19 608.141 1157 642.242 1181.13 666.188C1184.24 669.225 1187.19 672.303 1190 675.625C1190.92 676.744 1191.32 677.229 1191.74 677.694C1192.07 678.05 1192.4 678.393 1193 679H1195V681H1197V683L1199.19 684.75C1200.78 685.939 1201.43 686.422 1201.99 686.989C1202.38 687.377 1202.72 687.804 1203.3 688.523C1205.17 690.898 1206.7 692.82 1209.31 694.375L1211 695V697C1212.19 698.312 1212.78 698.969 1213.41 699.594C1214.03 700.219 1214.69 700.812 1216 702H1218V704C1219.03 704.449 1219.55 704.674 1220 705C1220.45 705.331 1220.83 705.764 1221.59 706.637C1226.87 712.314 1232.61 717.656 1240.32 719.578C1245.8 719.998 1249.31 718.096 1253.63 714.883L1256 713C1263.6 707.214 1270.38 700.823 1277.05 694.016C1278.03 693.007 1279.01 692.002 1280 691C1281.7 689.368 1283.38 687.711 1285 686V684H1287L1288.7 681.949C1290.97 679.037 1293.39 676.409 1295.92 673.735C1301.31 668.066 1306.55 662.37 1311.34 656.18L1313 654C1317.83 647.914 1322.05 641.526 1325.96 634.808L1327 633C1338.87 612.512 1344.47 588.167 1344.36 564.553C1344.34 562.293 1344.31 560.034 1344.32 557.774L1344.32 557.497C1344.34 550.05 1344.36 542.703 1342.63 535.413L1342 533L1341.79 532.105C1338.77 519.274 1335.77 506.496 1329.28 494.922C1328.06 492.83 1326.86 490.738 1325.68 488.619C1325.46 488.222 1325.24 487.822 1325.02 487.419C1318.73 475.995 1311.17 462.278 1299.63 455.633L1298 455V453C1297.38 452.419 1296.93 452.006 1296.48 451.603C1295.36 450.608 1294.19 449.675 1290.13 446.438Z" fill="#2462EA"/>
<path d="M1016 68C1016.77 68.0087 1017.53 68.0174 1018.32 68.0264C1044 68.3882 1072.27 80.4683 1091 98V100C1091.6 100.27 1092.19 100.539 1092.8 100.817C1095 101.999 1096.4 103.167 1098.14 104.933C1099.03 105.82 1099.03 105.82 1099.92 106.724C1100.55 107.36 1101.17 107.997 1101.81 108.652C1102.46 109.308 1103.11 109.964 1103.78 110.64C1105.86 112.734 1107.93 114.836 1110 116.938C1112.07 119.035 1114.14 121.131 1116.22 123.224C1117.51 124.526 1118.79 125.83 1120.08 127.137C1122.45 129.538 1124.71 131.785 1127.43 133.799C1127.95 134.195 1128.46 134.592 1129 135V137L1133 139V141C1133.85 141.362 1133.85 141.362 1134.72 141.73C1140.05 144.695 1144.38 149.946 1148.13 154.688C1149.77 156.721 1151.31 158.159 1153.31 159.812C1155.99 162.03 1158.25 164.35 1160.5 167C1162.69 169.583 1164.88 171.85 1167.5 174C1169.92 175.999 1171.98 178.04 1174 180.438C1177.58 184.665 1181.49 188.495 1185.44 192.375C1197.32 204.146 1207.2 215.196 1207.38 232.75C1207.32 242.687 1205.07 250.808 1198.06 258.148C1186.58 268.459 1177.37 269.836 1162.4 269.182C1152.83 268.456 1144.98 262.209 1138 256V254C1137.42 253.742 1136.83 253.484 1136.23 253.218C1133.82 251.901 1132.27 250.479 1130.36 248.516C1129.68 247.827 1129 247.139 1128.3 246.43C1127.6 245.71 1126.91 244.991 1126.19 244.25C1121.85 239.803 1117.54 235.452 1112.73 231.511C1110.37 229.451 1108.2 227.228 1106 225C1104.98 223.98 1103.96 222.96 1102.94 221.941L1081.06 200.059C1080.54 199.542 1080.02 199.026 1079.49 198.494C1078.06 197.062 1076.64 195.627 1075.21 194.192C1073.43 192.426 1071.66 190.849 1069.69 189.312L1067 187V185C1066.42 184.743 1065.83 184.487 1065.23 184.223C1062.79 182.887 1061.26 181.443 1059.35 179.438C1058.66 178.728 1057.97 178.018 1057.27 177.287C1056.54 176.532 1055.81 175.777 1055.06 175C1041.58 161.321 1026.52 148.097 1006.38 147.708C993.234 147.585 993.234 147.585 981 152C979.805 152.601 979.805 152.601 978.586 153.215C956.181 165.484 937.67 188.206 919.99 206.106C917.397 208.729 914.799 211.345 912.199 213.961C911.006 215.175 911.006 215.175 909.788 216.413C909.056 217.149 908.324 217.884 907.569 218.642C906.926 219.293 906.283 219.943 905.62 220.614C904 222 904 222 902 222L901 225H899V227C897.531 228.445 897.531 228.445 895.5 230.125C891.096 233.87 887.046 237.876 883 242C874.304 250.866 865.22 258.903 855 266C854.307 266.482 853.613 266.964 852.898 267.461C845.401 271.673 835.289 271.139 827 270C818.216 267.461 811.701 262.006 806 255C805.066 253.904 805.066 253.904 804.113 252.785C797.806 243.713 798.663 231.539 800 221C803.337 207.959 815.906 196.73 825.355 187.672C827.087 186.084 827.087 186.084 828 184H830L831 181C832.621 179.289 834.296 177.629 836 176C837.893 174.098 839.785 172.195 841.677 170.292C847.184 164.752 852.696 159.217 858.212 153.685C861.543 150.343 864.873 146.999 868.198 143.651C871.422 140.406 874.651 137.165 877.883 133.928C879.114 132.693 880.343 131.456 881.57 130.218C883.28 128.495 884.995 126.777 886.712 125.061C887.22 124.545 887.729 124.03 888.253 123.498C891.772 120 891.772 120 894 120L895 117H897V115C898.258 113.695 898.258 113.695 900.125 112.125C902.816 109.85 905.493 107.57 908.121 105.223C939.907 77.0198 974.163 67.1701 1016 68Z" fill="#9F9F9F"/>
</g>
<defs>
<clipPath id="clip0_1_2">
<rect width="2000" height="1065" fill="white"/>
</clipPath>
</defs>
</svg>
